<?xml version="1.0" standalone="no"?>
<!DOCTYPE svg PUBLIC "-//W3C//DTD SVG 20010904//EN"
 "http://www.w3.org/TR/2001/REC-SVG-20010904/DTD/svg10.dtd">
<svg version="1.0" xmlns="http://www.w3.org/2000/svg"
 width="700.000000pt" height="700.000000pt" viewBox="0 0 700.000000 700.000000"
 preserveAspectRatio="xMidYMid meet">
<metadata>
Created by potrace 1.14, written by Peter Selinger 2001-2017
</metadata>
<g transform="translate(0.000000,700.000000) scale(0.100000,-0.100000)"
fill="#000000" stroke="none">
<path d="M1355 6410 c-368 -49 -655 -305 -748 -667 l-22 -88 0 -2155 0 -2155
22 -88 c84 -326 324 -566 650 -650 l88 -22 2155 0 2155 0 88 22 c327 84 566
323 650 650 l22 88 0 2155 0 2155 -22 88 c-83 325 -318 562 -645 649 l-83 23
-2125 1 c-1169 1 -2152 -2 -2185 -6z m4291 -597 c32 -11 66 -34 100 -67 92
-93 84 129 84 -2246 0 -2375 8 -2153 -84 -2246 -93 -92 129 -84 -2246 -84
-2375 0 -2153 -8 -2246 84 -92 93 -84 -129 -84 2246 0 2376 -8 2153 85 2246
90 91 -130 82 2241 83 1940 1 2104 0 2150 -16z"/>
<path d="M2795 4346 c-67 -32 -704 -670 -731 -731 -23 -54 -23 -176 0 -230 12
-28 122 -144 354 -377 382 -384 381 -383 511 -376 89 4 138 25 194 81 55 55
81 118 82 197 0 120 -13 140 -248 378 l-211 212 211 213 c235 237 248 257 248
377 -1 79 -27 142 -82 197 -58 58 -105 77 -198 81 -68 2 -87 -1 -130 -22z"/>
<path d="M3951 4339 c-140 -70 -196 -230 -131 -376 16 -36 74 -101 228 -255
l206 -208 -206 -207 c-219 -220 -243 -253 -255 -351 -7 -65 17 -146 62 -204
76 -101 235 -139 350 -84 66 32 704 669 731 731 23 54 23 176 0 230 -27 62
-665 699 -731 731 -76 36 -172 34 -254 -7z"/>
</g>
</svg>
